<?xml version="1.0" encoding="UTF-8" standalone="no"?>
<!-- Created with Inkscape (http://www.inkscape.org/) -->

<svg
   width="62.172962mm"
   height="61.004547mm"
   viewBox="0 0 62.172963 61.004546"
   version="1.1"
   id="svg1"
   sodipodi:docname="sButton_Play_01.svg"
   inkscape:version="1.4.2 (f4327f4, 2025-05-13)"
   xmlns:inkscape="http://www.inkscape.org/namespaces/inkscape"
   xmlns:sodipodi="http://sodipodi.sourceforge.net/DTD/sodipodi-0.dtd"
   xmlns="http://www.w3.org/2000/svg"
   xmlns:svg="http://www.w3.org/2000/svg">
  <sodipodi:namedview
     id="namedview1"
     pagecolor="#ffffff"
     bordercolor="#000000"
     borderopacity="0.25"
     inkscape:showpageshadow="2"
     inkscape:pageopacity="0.0"
     inkscape:pagecheckerboard="0"
     inkscape:deskcolor="#d1d1d1"
     inkscape:document-units="mm"
     showgrid="false"
     inkscape:zoom="2.499441"
     inkscape:cx="110.22465"
     inkscape:cy="109.82456"
     inkscape:window-width="1920"
     inkscape:window-height="1017"
     inkscape:window-x="3832"
     inkscape:window-y="-8"
     inkscape:window-maximized="1"
     inkscape:current-layer="layer1" />
  <defs
     id="defs1">
    <rect
       x="154.39862"
       y="246.2032"
       width="599.51178"
       height="585.60199"
       id="rect1" />
  </defs>
  <g
     id="layer1"
     transform="translate(-67.287413,-75.116222)">
    <path
       id="text1"
       style="font-size:192px;writing-mode:lr-tb;direction:ltr;white-space:pre;shape-inside:url(#rect1);fill:#ffffff;stroke-width:0.907;fill-opacity:1;stroke:#000000;stroke-opacity:1;stroke-dasharray:none"
       d="m 80.68971,75.116217 c -1.102318,0 -2.204972,0.05812 -3.30729,0.17415 -1.044302,0.116033 -2.059522,0.376782 -3.045807,0.782899 -0.928268,0.348101 -1.769665,0.899432 -2.523883,1.65365 -0.696201,0.696201 -1.247007,1.624505 -1.653124,2.784841 -0.580167,1.740502 -1.015266,3.567803 -1.30535,5.482356 -0.290083,1.914553 -0.493233,3.858595 -0.609266,5.831164 -0.116034,1.914553 -0.17415,3.858078 -0.17415,5.830648 v 5.656505 c 0,2.37869 -0.0288,4.72851 -0.08682,7.04918 0,2.32067 -0.145033,4.66998 -0.435116,7.04867 -0.174051,1.21835 -0.261484,2.43672 -0.261484,3.65507 0,2.03059 0.20315,3.97412 0.609267,5.83066 0.406117,1.79852 1.073165,3.39438 2.001433,4.78679 0.986285,1.33438 2.233971,2.4072 3.742407,3.21944 1.566452,0.81223 3.509977,1.21852 5.830647,1.21852 1.624469,0 3.074789,-0.55132 4.351157,-1.65364 0.01021,-0.008 0.02031,-0.0169 0.03049,-0.0253 1.444971,0.88106 3.260823,1.32188 5.447737,1.32188 2.609965,0 5.135725,-0.37915 7.577314,-1.13688 2.525778,-0.75773 4.757218,-1.97846 6.693648,-3.66231 2.02062,-1.68385 4.50397,-3.40941 7.45071,-5.17746 3.03093,-1.85224 5.89342,-3.83074 8.58758,-5.93555 2.69417,-2.10482 5.00992,-4.42057 6.94635,-6.94635 1.93643,-2.52578 2.90422,-5.30396 2.90422,-8.3349 0,-2.94673 -0.92589,-5.472498 -2.77813,-7.57731 -1.85223,-2.189008 -3.95695,-3.998886 -6.31434,-5.430159 -1.76805,-1.010308 -4.25191,-2.357765 -7.45123,-4.041611 -3.19931,-1.768042 -6.56717,-3.451715 -10.10326,-5.051373 C 99.361532,80.785922 95.994195,79.354676 92.710682,78.175984 90.025286,77.115954 87.81434,76.500895 86.078007,76.330616 84.686593,75.521119 82.89063,75.116217 80.68971,75.116217 Z m 9.050614,23.507092 c 0.562899,0.259516 1.131898,0.515733 1.707388,0.768949 2.104811,0.926122 4.209523,1.768212 6.314344,2.525942 2.104811,0.75773 3.957104,1.34689 5.556764,1.76785 -2.35739,1.34709 -4.798839,2.48401 -7.324616,3.41013 -2.223855,0.76685 -4.308379,1.9524 -6.252847,3.5574 -9.97e-4,-0.24202 -10e-4,-0.48407 -10e-4,-0.72708 z" />
  </g>
</svg>
